<svg width="479" height="208" viewBox="0 0 479 108" fill="none" xmlns="http://www.w3.org/2000/svg">
    <!-- 机器人头部 -->
    <rect x="180" y="20" width="119" height="50" rx="15" fill="#4A90E2" stroke="#333" stroke-width="2"/>

    <!-- 机器人身体 -->
    <rect x="160" y="70" width="159" height="138" rx="10" fill="#4A90E2" stroke="#333" stroke-width="2"/>

    <!-- 天线 -->
    <line x1="219" y1="20" x2="219" y2="10" stroke="#333" stroke-width="3"/>
    <line x1="260" y1="20" x2="260" y2="10" stroke="#333" stroke-width="3"/>
    <circle cx="219" cy="8" r="4" fill="#FF6B6B"/>
    <circle cx="260" cy="8" r="4" fill="#FF6B6B"/>

    <!-- 眼睛 -->
    <circle cx="205" cy="40" r="8" fill="#333"/>
    <circle cx="274" cy="40" r="8" fill="#333"/>
    <circle cx="203" cy="38" r="3" fill="#FFF"/>
    <circle cx="272" cy="38" r="3" fill="#FFF"/>

    <!-- 嘴巴 -->
    <path d="M225 55 Q239.5 62 254 55" stroke="#333" stroke-width="2" fill="none"/>

    <!-- 身体装饰 -->
    <rect x="190" y="75" width="99" height="8" rx="4" fill="#FFD166"/>

    <!-- 轮子/脚 -->
    <circle cx="185" cy="148" r="10" fill="#333"/>
    <circle cx="294" cy="148" r="10" fill="#333"/>
    <circle cx="185" cy="148" r="5" fill="#666"/>
    <circle cx="294" cy="148" r="5" fill="#666"/>

    <!-- 手臂 -->
    <rect x="120" y="75" width="40" height="8" rx="4" fill="#4A90E2" stroke="#333" stroke-width="2"/>
    <rect x="319" y="75" width="40" height="8" rx="4" fill="#4A90E2" stroke="#333" stroke-width="2"/>

    <!-- 手部 -->
    <circle cx="122" cy="79" r="6" fill="#333"/>
    <circle cx="357" cy="79" r="6" fill="#333"/>
</svg>